<?xml version="1.0" encoding="UTF-8"?>
<svg width="18px" height="14px" viewBox="0 0 18 14" version="1.1" xmlns="http://www.w3.org/2000/svg" xmlns:xlink="http://www.w3.org/1999/xlink">
    <!-- Generator: Sketch 47.1 (45422) - http://www.bohemiancoding.com/sketch -->
    <title>Menu </title>
    <desc>Created with Sketch.</desc>
    <defs></defs>
    <g id="Symbols" stroke="none" stroke-width="1" fill="none" fill-rule="evenodd">
        <g id="Masthead" transform="translate(-18.000000, -23.000000)" fill="#747676">
            <g id="Menu-">
                <g transform="translate(18.000000, 23.000000)">
                    <path d="M1.44759524,2.92238572 L16.5596752,2.92238572 C17.3558152,2.92238572 18.0036352,2.26861927 18.0036352,1.46480805 C18.0036352,0.660996833 17.3558152,0.00723037707 16.5596752,0.00723037707 L1.44759524,0.00723037707 C0.65145524,0.00723037707 0.00363523998,0.660996833 0.00363523998,1.46480805 C0.00363523998,2.26861927 0.65145524,2.92238572 1.44759524,2.92238572" id="Fill-1"></path>
                    <path d="M16.5596752,5.42783094 L1.44759524,5.42783094 C0.65145524,5.42783094 0.00363523998,6.0819607 0.00363523998,6.88577191 C0.00363523998,7.68958313 0.65145524,8.34334959 1.44759524,8.34334959 L16.5596752,8.34334959 C17.3558152,8.34334959 18.0036352,7.68958313 18.0036352,6.88577191 C18.0036352,6.0819607 17.3558152,5.42783094 16.5596752,5.42783094" id="Fill-2"></path>
                    <path d="M16.5596752,11.0815366 L1.44759524,11.0815366 C0.65145524,11.0815366 0.00363523998,11.735303 0.00363523998,12.5392959 C0.00363523998,13.3429255 0.65145524,13.9966919 1.44759524,13.9966919 L16.5596752,13.9966919 C17.3558152,13.9966919 18.0036352,13.3429255 18.0036352,12.5392959 C18.0036352,11.735303 17.3558152,11.0815366 16.5596752,11.0815366" id="Fill-3"></path>
                </g>
            </g>
        </g>
    </g>
</svg>