<?xml version="1.0" encoding="UTF-8"?>
<svg width="15px" height="12px" viewBox="0 0 15 12" version="1.1" xmlns="http://www.w3.org/2000/svg" xmlns:xlink="http://www.w3.org/1999/xlink">
    <!-- Generator: Sketch 48.1 (47250) - http://www.bohemiancoding.com/sketch -->
    <title>icon cart</title>
    <desc>Created with Sketch.</desc>
    <defs></defs>
    <g id="Header" stroke="none" stroke-width="1" fill="none" fill-rule="evenodd" transform="translate(-1094.000000, -13.000000)">
        <g fill="#959595" id="aux-navigation">
            <g transform="translate(408.000000, 0.000000)">
                <g id="links-right" transform="translate(499.000000, 12.000000)">
                    <g id="Shop-Online" transform="translate(187.000000, 0.000000)">
                        <path d="M14.341,2.31305733 L3.491,2.31305733 C3.491,2.31305733 5.461,7.57205733 5.491,7.67105733 C5.542,8.00705733 5.856,8.23905733 6.193,8.18705733 C6.195,8.18705733 6.198,8.18605733 6.201,8.18605733 L13.461,8.18605733 C13.461,8.18605733 14.151,5.71805733 14.921,3.37905733 C14.961,3.25505733 14.988,3.12705733 15.001,2.99805733 C15.012,2.62905733 14.722,2.32105733 14.353,2.31005733 L14.341,2.31005733 L14.341,2.31305733 Z M13.351,9.81305733 L4.921,9.81305733 C4.739,9.81105733 4.577,9.69805733 4.511,9.52805733 L1.651,1.88105733 L0.441,1.88105733 C0.198,1.88105733 0,1.68405733 0,1.44105733 C0,1.19705733 0.198,1.00005733 0.441,1.00005733 L1.951,1.00005733 C2.135,0.997057327 2.3,1.11205733 2.361,1.28505733 L5.231,8.93305733 L13.351,8.93305733 C13.594,8.93305733 13.791,9.13105733 13.79,9.37405733 C13.79,9.61605733 13.594,9.81305733 13.351,9.81305733 L13.351,9.81305733 Z M11.711,10.0600573 C10.9,10.0560573 10.239,10.7090573 10.235,11.5200573 C10.231,12.3310573 10.884,12.9920573 11.695,12.9960573 C12.506,13.0000573 13.166,12.3470573 13.171,11.5360573 L13.171,11.5280573 C13.17,10.7210573 12.518,10.0650573 11.711,10.0600573 L11.711,10.0600573 Z M6.001,10.0600573 C5.19,10.0560573 4.529,10.7090573 4.525,11.5200573 C4.521,12.3310573 5.174,12.9920573 5.985,12.9960573 C6.796,13.0000573 7.456,12.3470573 7.461,11.5360573 L7.461,11.5280573 C7.461,10.7210573 6.808,10.0650573 6.001,10.0600573 L6.001,10.0600573 Z" id="icon-cart"></path>
                    </g>
                </g>
            </g>
        </g>
    </g>
</svg>