<?xml version="1.0" encoding="UTF-8"?>
<svg width="57px" height="44px" viewBox="0 0 57 44" version="1.1" xmlns="http://www.w3.org/2000/svg" xmlns:xlink="http://www.w3.org/1999/xlink">
    <!-- Generator: Sketch 47.1 (45422) - http://www.bohemiancoding.com/sketch -->
    <title>logo_fios-by-verizon_ar</title>
    <desc>Created with Sketch.</desc>
    <defs>
        <polygon id="path-1" points="0.00675889328 0.0766376022 56.9336502 0.0766376022 56.9336502 40.993297 0.00675889328 40.993297"></polygon>
    </defs>
    <g id="Symbols" stroke="none" stroke-width="1" fill="none" fill-rule="evenodd">
        <g id="Masthead" transform="translate(-70.000000, -10.000000)">
            <g id="logo_fios-by-verizon_ar">
                <g transform="translate(70.000000, 10.000000)">
                    <g id="Group-4">
                        <mask id="mask-2" fill="white">
                            <use xlink:href="#path-1"></use>
                        </mask>
                        <g id="Clip-2"></g>
                        <path d="M40.7174881,28.2829619 L40.7451996,28.2829619 C41.1062372,27.7871635 41.5968202,27.4655313 42.3192332,27.4655313 C43.3562727,27.4655313 43.9951008,28.0443351 43.9951008,29.0726866 L43.9951008,32.5163515 L43.1434802,32.5163515 L43.1434802,29.1735668 C43.1434802,28.5401335 42.7265692,28.1820817 42.0509051,28.1820817 C41.2823063,28.1820817 40.7268379,28.7239074 40.7268379,29.5134087 L40.7268379,32.5163515 L39.8655296,32.5163515 L39.8655296,27.5850681 L40.7174881,27.5850681 L40.7174881,28.2829619 L40.7174881,28.2829619 Z M38.0415296,30.055346 C38.0415296,28.9901281 37.5134348,28.1452153 36.4948696,28.1452153 C35.4763043,28.1452153 34.9486601,28.9901281 34.9486601,30.055346 C34.9486601,31.120564 35.4763043,31.9562044 36.4948696,31.9562044 C37.5134348,31.9562044 38.0415296,31.120564 38.0415296,30.055346 L38.0415296,30.055346 Z M34.0688775,30.055346 C34.0688775,28.6226921 35.004083,27.4655313 36.5042194,27.4655313 C38.0043557,27.4655313 38.9208617,28.6226921 38.9208617,30.055346 C38.9208617,31.4969373 38.0043557,32.6540981 36.5042194,32.6540981 C35.004083,32.6540981 34.0688775,31.4969373 34.0688775,30.055346 L34.0688775,30.055346 Z M29.568919,31.8553243 L31.7911304,28.9807439 C31.9949111,28.7239074 32.3837727,28.3104441 32.3837727,28.3104441 L32.3837727,28.2829619 C32.3837727,28.2829619 31.7911304,28.3104441 31.4484545,28.3104441 L29.7355257,28.3104441 L29.7355257,27.5850681 L33.4668854,27.5850681 L33.4668854,28.1176213 L31.2076126,31.0472779 C30.9947075,31.3133869 30.5781344,31.7633815 30.5781344,31.7633815 L30.5781344,31.7909755 C30.5781344,31.7909755 31.2076126,31.7633815 31.5686502,31.7633815 L33.5779565,31.7633815 L33.5779565,32.5163515 L29.568919,32.5163515 L29.568919,31.8553243 L29.568919,31.8553243 Z M27.6796957,27.5850681 L28.541004,27.5850681 L28.541004,32.5163515 L27.6796957,32.5163515 L27.6796957,27.5850681 Z M27.6612213,25.6842098 L28.5593656,25.6842098 L28.5593656,26.6761417 L27.6612213,26.6761417 L27.6612213,25.6842098 Z M24.9947253,28.4757847 L25.0224368,28.4757847 C25.3279387,27.9065886 25.8372213,27.5209428 26.4944111,27.5209428 C26.6333063,27.5209428 26.717004,27.5392643 26.8096008,27.5760191 L26.8096008,28.3841771 L26.7818893,28.3841771 C26.6613557,28.3473106 26.5777708,28.3380381 26.4298636,28.3380381 C25.6612648,28.3380381 25.0037372,28.9074578 25.0037372,29.8350409 L25.0037372,32.5163515 L24.1427668,32.5163515 L24.1427668,27.5850681 L24.9947253,27.5850681 L24.9947253,28.4757847 L24.9947253,28.4757847 Z M19.4018538,29.642218 L22.2815929,29.642218 C22.2354071,28.6964251 21.7444862,28.1268937 20.8835158,28.1268937 C19.9850336,28.1268937 19.5129249,28.7697112 19.4018538,29.642218 L19.4018538,29.642218 Z M18.5037095,30.055346 C18.5037095,28.6226921 19.4573893,27.4655313 20.8835158,27.4655313 C21.6242905,27.4655313 22.1982332,27.750297 22.5874328,28.2277738 C22.9946561,28.7146349 23.1984368,29.4218011 23.1984368,30.2574414 L19.3833794,30.2574414 C19.4483775,31.2214441 19.9760217,31.9562044 20.9390514,31.9562044 C21.6242905,31.9562044 22.0965119,31.6345722 22.2537688,31.1112916 L23.0963775,31.1112916 C22.8741225,32.0294905 22.0778123,32.6540981 20.9297016,32.6540981 C19.4018538,32.6540981 18.5037095,31.4969373 18.5037095,30.055346 L18.5037095,30.055346 Z M13.7256225,27.5850681 L14.6422411,27.5850681 L15.5128992,30.2481689 C15.7256917,30.9091962 15.9663083,31.8184578 15.9663083,31.8184578 L15.9850079,31.8184578 C15.9850079,31.8184578 16.1978004,30.9091962 16.4203933,30.2481689 L17.3090751,27.5850681 L18.1978696,27.5850681 L16.4107055,32.5163515 L15.4573636,32.5163515 L13.7256225,27.5850681 L13.7256225,27.5850681 Z M7.05898814,34.1324441 L7.05898814,33.3981308 L7.09616206,33.3981308 C7.1885336,33.4532071 7.40166403,33.4897384 7.61445652,33.4897384 C7.95713241,33.4897384 8.1792747,33.3612643 8.35534387,32.8929482 C8.35534387,32.8744033 8.5497747,32.3235286 8.53141304,32.2684523 L6.63306522,27.5850681 L7.56827075,27.5850681 L8.59596047,30.321455 C8.79974111,30.8816022 9.0125336,31.6532289 9.0125336,31.6532289 L9.0312332,31.6532289 C9.0312332,31.6532289 9.2625,30.8726649 9.45726877,30.321455 L10.4477846,27.5850681 L11.3461542,27.5850681 L9.23467589,32.966346 C8.82745257,34.0040817 8.42935375,34.2336594 7.79052569,34.2336594 C7.51273518,34.2336594 7.1978834,34.1875204 7.05898814,34.1324441 L7.05898814,34.1324441 Z M5.44778063,30.0735559 C5.44778063,28.9901281 5.00349605,28.1820817 4.09588933,28.1820817 C3.04026285,28.1820817 2.5586917,29.0269946 2.5586917,30.0735559 C2.5586917,31.148158 3.06797431,31.9562044 4.08653953,31.9562044 C5.00349605,31.9562044 5.44778063,31.1574305 5.44778063,30.0735559 L5.44778063,30.0735559 Z M2.62357708,31.8184578 L2.59586561,31.8184578 L2.59586561,32.5163515 L1.74390711,32.5163515 L1.74390711,25.6842098 L2.60521542,25.6842098 L2.60521542,27.4291117 C2.60521542,27.8053733 2.58651581,28.1544877 2.57750395,28.3655204 L2.60521542,28.3655204 C2.9291917,27.8422398 3.48499802,27.4655313 4.20707312,27.4655313 C5.46625494,27.4655313 6.32756324,28.4392534 6.32756324,30.0646185 C6.32756324,31.6532289 5.52179051,32.6633706 4.17924901,32.6633706 C3.51270949,32.6633706 2.94755336,32.3693324 2.62357708,31.8184578 L2.62357708,31.8184578 Z" id="Fill-1" fill="#0B0C0A" mask="url(#mask-2)"></path>
                        <path d="M1.73973913,21.8264114 L6.18900593,21.8264114 L6.18900593,10.5128692 L9.12619565,10.5128692 L9.12619565,7.34547956 L6.18900593,7.34547956 L6.18900593,6.92151499 C6.18900593,5.64872752 7.27245652,5.47858311 9.12619565,5.56382289 L9.12619565,2.19813624 C6.67373123,1.94353406 4.13531621,2.19813624 2.90914032,3.44232425 C2.16757708,4.1779782 1.73973913,5.28073297 1.73973913,6.55374387 L1.73973913,7.34547956 L0,7.34547956 L0,10.5128692 L1.73973913,10.5128692 L1.73973913,21.8264114 L1.73973913,21.8264114 Z M10.3815474,21.8264114 L14.8588636,21.8264114 L14.8588636,7.34547956 L10.3815474,7.34547956 L10.3815474,21.8264114 Z M23.7284466,22.2789755 C28.3772134,22.2789755 31.4859664,18.9413297 31.4859664,14.6142098 C31.4859664,10.2586022 28.3772134,6.94933243 23.7284466,6.94933243 C19.0797925,6.94933243 15.9708142,10.2586022 15.9708142,14.6142098 C15.9708142,18.9413297 19.0797925,22.2789755 23.7284466,22.2789755 L23.7284466,22.2789755 Z M23.6999466,19.0262343 C21.5894822,19.0262343 20.4771937,17.272842 20.4771937,14.6142098 C20.4771937,11.9273134 21.5894822,10.2019619 23.6999466,10.2019619 C25.8104111,10.2019619 26.9798123,11.9273134 26.9798123,14.6142098 C26.9798123,17.272842 25.8104111,19.0262343 23.6999466,19.0262343 L23.6999466,19.0262343 Z M10.3815474,6.10117984 L14.8588636,6.10117984 L14.8588636,2.1696485 L10.3815474,2.1696485 L10.3815474,6.10117984 Z M39.0436482,22.2789755 C42.8369644,22.2789755 45.6314289,20.6100409 45.6314289,17.4709155 C45.6314289,13.7939864 42.6655138,13.1432371 40.0702115,12.690673 C38.2164723,12.3798774 36.5339585,12.2382207 36.5339585,11.192218 C36.5339585,10.2867548 37.4179091,9.83430245 38.5873103,9.83430245 C39.9278241,9.83430245 40.8117747,10.2586022 40.9828874,11.58803 L45.1754289,11.58803 C44.9470909,8.70305995 42.7226265,6.92151499 38.6160356,6.92151499 C35.1934447,6.92151499 32.3701423,8.50509809 32.3701423,11.5595422 C32.3701423,14.9252289 34.99417,15.6323951 37.5890217,16.0849591 C39.5570988,16.4244659 41.3252253,16.5375232 41.3252253,17.8383515 C41.3252253,18.7716322 40.4410494,19.3093243 38.9867609,19.3093243 C37.4466344,19.3093243 36.4483458,18.602158 36.2772332,17.1316322 L31.9423043,17.1316322 C32.113417,20.3275095 34.765832,22.2789755 39.0436482,22.2789755 L39.0436482,22.2789755 Z" id="Fill-3" fill="#0B0C0A" mask="url(#mask-2)"></path>
                    </g>
                    <polyline id="Fill-5" fill="#BA242A" points="54.7011877 0.0766376022 49.193253 11.7904605 47.1118518 7.34547956 44.8615909 7.34547956 48.2793379 14.6138747 50.0981561 14.6138747 56.9336502 0.0766376022 54.7011877 0.0766376022"></polyline>
                    <text id="authorized-retailer" font-family=".AppleSystemUIFont" font-size="4.32046829" font-weight="normal" letter-spacing="0.025" fill="#2E2F2C">
                        <tspan x="1.74385079" y="38.3493297">authori</tspan>
                        <tspan x="17.4328761" y="38.3493297" letter-spacing="-0.365885">z</tspan>
                        <tspan x="19.5056929" y="38.3493297">ed </tspan>
                        <tspan x="1.74385079" y="43.3493297" letter-spacing="-0.365885">re</tspan>
                        <tspan x="5.40849481" y="43.3493297" letter-spacing="0.415885">t</tspan>
                        <tspan x="7.56691243" y="43.3493297">ailer</tspan>
                    </text>
                </g>
            </g>
        </g>
    </g>
</svg>