<?xml version="1.0" encoding="UTF-8"?>
<svg width="117px" height="84px" viewBox="0 0 117 84" version="1.1" xmlns="http://www.w3.org/2000/svg" xmlns:xlink="http://www.w3.org/1999/xlink">
    <!-- Generator: Sketch 48.1 (47250) - http://www.bohemiancoding.com/sketch -->
    <title>fios logo</title>
    <desc>Created with Sketch.</desc>
    <defs></defs>
    <g id="Header" stroke="none" stroke-width="1" fill="none" fill-rule="evenodd" transform="translate(-250.000000, -36.000000)">
        <g id="fios-logo">
            <g transform="translate(250.000000, 36.000000)">
                <text id="authorized-retailer" font-family="ArialMT, Arial" font-size="10" font-weight="normal" letter-spacing="0.277777791" fill="#333333">
                    <tspan x="3" y="83">authorized retaile</tspan>
                    <tspan x="84.7138674" y="83" letter-spacing="0.308642">r</tspan>
                </text>
                <polygon id="check" fill="#CD040B" points="111.867014 0.57584381 100.603228 24.727339 96.3465919 15.5629295 91.7443665 15.5629295 98.7339329 30.5486629 102.453586 30.5486629 116.432719 0.57584381"></polygon>
                <path d="M83.2695087,58.7308619 L83.3263179,58.7308619 C84.0648382,57.7084619 85.0677919,57.0457952 86.5455087,57.0457952 C88.665711,57.0457952 89.9723237,58.2392714 89.9723237,60.3591286 L89.9723237,67.4591286 L88.2308497,67.4591286 L88.2308497,60.5673952 C88.2308497,59.2609952 87.3780347,58.5225952 85.9963526,58.5225952 C84.4246301,58.5225952 83.2884451,59.6403381 83.2884451,61.2679286 L83.2884451,67.4591286 L81.5273584,67.4591286 L81.5273584,57.2919286 L83.2695087,57.2919286 L83.2695087,58.7308619 Z M77.7968844,62.3849952 C77.7968844,60.1887286 76.7175087,58.4468619 74.6338266,58.4468619 C72.5508208,58.4468619 71.4721214,60.1887286 71.4721214,62.3849952 C71.4721214,64.5812619 72.5508208,66.3041952 74.6338266,66.3041952 C76.7175087,66.3041952 77.7968844,64.5812619 77.7968844,62.3849952 L77.7968844,62.3849952 Z M69.6731618,62.3849952 C69.6731618,59.4313952 71.5857399,57.0457952 74.6534393,57.0457952 C77.7211387,57.0457952 79.5951676,59.4313952 79.5951676,62.3849952 C79.5951676,65.3575286 77.7211387,67.7431286 74.6534393,67.7431286 C71.5857399,67.7431286 69.6731618,65.3575286 69.6731618,62.3849952 L69.6731618,62.3849952 Z M60.4700636,66.0966048 L65.0148035,60.1697952 C65.4314046,59.6403381 66.2267341,58.7876619 66.2267341,58.7876619 L66.2267341,58.7308619 C66.2267341,58.7308619 65.0148035,58.7876619 64.3141561,58.7876619 L60.8109191,58.7876619 L60.8109191,57.2919286 L68.4416185,57.2919286 L68.4416185,58.3900619 L63.8211329,64.4304714 C63.3862717,64.9788619 62.5341329,65.9065952 62.5341329,65.9065952 L62.5341329,65.9633952 C62.5341329,65.9633952 63.8211329,65.9065952 64.5596532,65.9065952 L68.6688555,65.9065952 L68.6688555,67.4591286 L60.4700636,67.4591286 L60.4700636,66.0966048 Z M56.6063584,57.2919286 L58.3681214,57.2919286 L58.3681214,67.4591286 L56.6063584,67.4591286 L56.6063584,57.2919286 Z M56.5691618,53.3727286 L58.4059942,53.3727286 L58.4059942,55.4175286 L56.5691618,55.4175286 L56.5691618,53.3727286 Z M51.115474,59.1284619 L51.1722832,59.1284619 C51.797185,57.9545952 52.8386879,57.1600714 54.1824971,57.1600714 C54.4665434,57.1600714 54.6376474,57.1972619 54.8270116,57.2736714 L54.8270116,58.9398048 L54.7702023,58.9398048 C54.5240289,58.8633952 54.3529249,58.8444619 54.0506185,58.8444619 C52.478896,58.8444619 51.1337341,60.0183286 51.1337341,61.9305952 L51.1337341,67.4591286 L49.3733237,67.4591286 L49.3733237,57.2919286 L51.115474,57.2919286 L51.115474,59.1284619 Z M39.6778786,61.5336714 L45.567104,61.5336714 C45.472422,59.5835381 44.4687919,58.4089952 42.7077052,58.4089952 C40.8708728,58.4089952 39.9051156,59.7343286 39.6778786,61.5336714 L39.6778786,61.5336714 Z M37.8410462,62.3849952 C37.8410462,59.4313952 39.7914971,57.0457952 42.7077052,57.0457952 C44.2232948,57.0457952 45.3966763,57.6327286 46.1926821,58.6172619 C47.0252081,59.6207286 47.4418092,61.0792714 47.4418092,62.8022048 L39.6400058,62.8022048 C39.773237,64.7895286 40.8519364,66.3041952 42.8213237,66.3041952 C44.2232948,66.3041952 45.1883757,65.6415286 45.5102948,64.5623286 L47.2335087,64.5623286 C46.7790347,66.4556619 45.1505029,67.7431286 42.8023873,67.7431286 C39.6778786,67.7431286 37.8410462,65.3575286 37.8410462,62.3849952 L37.8410462,62.3849952 Z M28.0698555,57.2919286 L29.9438844,57.2919286 L31.7245838,62.7825952 C32.1601214,64.1457952 32.6517919,66.0201952 32.6517919,66.0201952 L32.690341,66.0201952 C32.690341,66.0201952 33.1252023,64.1457952 33.5803526,62.7825952 L35.3982486,57.2919286 L37.2154682,57.2919286 L33.5607399,67.4591286 L31.6109653,67.4591286 L28.0698555,57.2919286 Z M14.4363121,70.7913952 L14.4363121,69.2774048 L14.5120578,69.2774048 C14.7007457,69.3910048 15.1369595,69.4660619 15.5718208,69.4660619 C16.2731445,69.4660619 16.7269422,69.2009952 17.0874104,68.2360714 C17.0874104,68.1975286 17.4850751,67.0615286 17.4472023,66.9479286 L13.565237,57.2919286 L15.477815,57.2919286 L17.5790809,62.9340619 C17.9956821,64.0889952 18.4312197,65.6793952 18.4312197,65.6793952 L18.4697688,65.6793952 C18.4697688,65.6793952 18.9425029,64.0700619 19.3408439,62.9340619 L21.3663642,57.2919286 L23.2038728,57.2919286 L18.8856936,68.3868619 C18.0524913,70.5263286 17.2382254,71.0003381 15.932289,71.0003381 C15.3641965,71.0003381 14.7203584,70.9049952 14.4363121,70.7913952 L14.4363121,70.7913952 Z M11.1413757,62.4228619 C11.1413757,60.1887286 10.2324277,58.5225952 8.37665896,58.5225952 C6.21723121,58.5225952 5.23253757,60.2651381 5.23253757,62.4228619 C5.23253757,64.6380619 6.27404046,66.3041952 8.35704624,66.3041952 C10.2324277,66.3041952 11.1413757,64.6576714 11.1413757,62.4228619 L11.1413757,62.4228619 Z M5.36576879,66.0201952 L5.30895954,66.0201952 L5.30895954,67.4591286 L3.56613295,67.4591286 L3.56613295,53.3727286 L5.32789595,53.3727286 L5.32789595,56.9700619 C5.32789595,57.7463286 5.28934682,58.4657952 5.27108671,58.9012619 L5.32789595,58.9012619 C5.98999422,57.8220619 7.12685549,57.0457952 8.60389595,57.0457952 C11.1785723,57.0457952 12.9403353,59.0534048 12.9403353,62.4046048 C12.9403353,65.6793952 11.2921908,67.7627381 8.54708671,67.7627381 C7.18366474,67.7627381 6.02786705,67.1561952 5.36576879,66.0201952 L5.36576879,66.0201952 Z" id="by-verizon" fill="#000000"></path>
                <path d="M3.55781445,45.4190381 L12.6567624,45.4190381 L12.6567624,22.0931714 L18.6636642,22.0931714 L18.6636642,15.5625238 L12.6567624,15.5625238 L12.6567624,14.6882095 C12.6567624,12.0639143 14.8723231,11.7136476 18.6636642,11.8894571 L18.6636642,4.94971429 C13.6482191,4.42499048 8.45693584,4.94971429 5.94921329,7.51518095 C4.4329474,9.03187619 3.55781445,11.3052286 3.55781445,13.9302 L3.55781445,15.5625238 L-0.000202890174,15.5625238 L-0.000202890174,22.0931714 L3.55781445,22.0931714 L3.55781445,45.4190381 Z M21.2309012,45.4190381 L30.3873347,45.4190381 L30.3873347,15.5625238 L21.2309012,15.5625238 L21.2309012,45.4190381 Z M48.5257162,46.352181 C58.0331497,46.352181 64.3903751,39.4705905 64.3903751,30.5489333 C64.3903751,21.5691238 58.0331497,14.7456857 48.5257162,14.7456857 C39.0196353,14.7456857 32.6610572,21.5691238 32.6610572,30.5489333 C32.6610572,39.4705905 39.0196353,46.352181 48.5257162,46.352181 L48.5257162,46.352181 Z M48.4675543,39.6457238 C44.151404,39.6457238 41.8770052,36.0308095 41.8770052,30.5489333 C41.8770052,25.0089048 44.151404,21.4521429 48.4675543,21.4521429 C52.7837046,21.4521429 55.1751035,25.0089048 55.1751035,30.5489333 C55.1751035,36.0308095 52.7837046,39.6457238 48.4675543,39.6457238 L48.4675543,39.6457238 Z M21.2309012,12.9970571 L30.3873347,12.9970571 L30.3873347,4.89088571 L21.2309012,4.89088571 L21.2309012,12.9970571 Z M79.8465486,46.352181 C87.6037162,46.352181 93.3191324,42.9110476 93.3191324,36.4392286 C93.3191324,28.857781 87.2533925,27.516219 81.9457855,26.5830762 C78.1551208,25.9420476 74.7141035,25.6506095 74.7141035,23.4935619 C74.7141035,21.6266 76.5218549,20.6941333 78.9132538,20.6941333 C81.6549763,20.6941333 83.4620514,21.5691238 83.8123751,24.3097238 L92.3865139,24.3097238 C91.9191902,18.3612762 87.3703925,14.6882095 78.9720919,14.6882095 C71.9723809,14.6882095 66.1988029,17.9535333 66.1988029,24.2508952 C66.1988029,31.1906381 71.565248,32.6485048 76.8715023,33.5816476 C80.8961671,34.2815048 84.5123462,34.5147905 84.5123462,37.1965619 C84.5123462,39.121 82.7039185,40.2292762 79.7302249,40.2292762 C76.5806931,40.2292762 74.5389416,38.7714095 74.1886179,35.7393714 L65.3236699,35.7393714 C65.6739936,42.3288476 71.0979243,46.352181 79.8465486,46.352181 L79.8465486,46.352181 Z" id="fios" fill="#000000"></path>
            </g>
        </g>
    </g>
</svg>