<?xml version="1.0" encoding="UTF-8"?>
<svg width="17px" height="16px" viewBox="0 0 17 16" version="1.1" xmlns="http://www.w3.org/2000/svg" xmlns:xlink="http://www.w3.org/1999/xlink">
    <!-- Generator: Sketch 47.1 (45422) - http://www.bohemiancoding.com/sketch -->
    <title>Phone_Receiver</title>
    <desc>Created with Sketch.</desc>
    <defs></defs>
    <g id="Symbols" stroke="none" stroke-width="1" fill="none" fill-rule="evenodd">
        <g id="Masthead" transform="translate(-203.000000, -22.000000)" fill="#DA3337">
            <g id="Phone_Receiver">
                <path d="M207.385897,22.4855845 C207.385897,22.4855845 207.197289,21.9966265 206.537971,22.0000176 L205.632075,22.1235489 C205.632075,22.1235489 202.651498,22.5101293 203.03388,26.1240265 C203.03388,26.1240265 204.4184,34.7973796 214.061433,37.7303203 C214.061433,37.7303203 217.895588,39.0231202 218.955696,35.9475936 C218.955696,35.9475936 219.081166,35.3475381 219.215031,34.6191069 C219.215031,34.6191069 219.3208,34.2344643 218.821346,33.900203 L215.856917,32.2004764 C215.856917,32.2004764 215.354395,31.8226158 214.93245,32.2305115 C214.93245,32.2305115 214.286212,32.7559637 213.622857,33.5392977 L213.336555,33.9121524 C213.336555,33.9121524 213.169424,34.1233668 212.718736,33.9604346 C212.718736,33.9604346 209.816315,33.029186 207.175167,28.6326007 C207.175167,28.6326007 206.943768,28.2988239 207.40156,27.8524963 C207.40156,27.8524963 207.898108,27.453805 208.491543,26.7883505 C208.491543,26.7883505 208.819829,26.5315991 208.635259,26.0000107 L208.580517,25.8122108 L207.385897,22.4855845 Z"></path>
            </g>
        </g>
    </g>
</svg>